# xmcd
#
# Track frame offsets:
#       150
#       15416
#       30746
#       50946
#       71542
#       86736
#       105599
#       124166
#       131154
#       147254
#       164776
#       183314
#       200539
#       217599
#       233373
#       254798
#
# Disc length: 3602 seconds
#
# Revision: 0
# Processed by: cddbd v1.5.2PL0 Copyright (c) Steve Scherf et al.
# Submitted via: WaveLab 6.11
#
DISCID=e90e1010
DTITLE=The Ragtown Brothers - The Ragtown Brothers
DYEAR=1900
DGENRE=
TTITLE0=01-Shanona
TTITLE1=02-Cry For Rain
TTITLE2=03-Soldier of the Line
TTITLE3=04-Magic Hat
TTITLE4=05-Over My Head
TTITLE5=06-The Good Life
TTITLE6=07-Ragtown Rag
TTITLE7=08-Hope
TTITLE8=09-Suffolk on a Sunday
TTITLE9=10-Lady and I
TTITLE10=11-Just Passing Through
TTITLE11=12-Soldier of the Line (Original 2006 Demo)
TTITLE12=13-The Good Life (Original 2006 Demo)
TTITLE13=Cry For Rain (Original 2007 Demo)
TTITLE14=Magic Hat (Original 2009 Demo)
TTITLE15=Suffolk on a Sunday (Original 2009 Demo)
EXTD=
EXTT0=
EXTT1=
EXTT2=
EXTT3=
EXTT4=
EXTT5=
EXTT6=
EXTT7=
EXTT8=
EXTT9=
EXTT10=
EXTT11=
EXTT12=
EXTT13=
EXTT14=
EXTT15=
PLAYORDER=
